<svg width="45" height="52" viewBox="0 0 45 52" fill="none" xmlns="http://www.w3.org/2000/svg">
<path d="M28.828 51.2001H5.56802C4.50529 51.2001 3.4855 50.8114 2.73027 50.1185L0.849367 48.3926C0.48728 48.0604 0.741123 47.4884 1.25064 47.4884H33.1454C33.6549 47.4884 33.9088 48.0604 33.5467 48.3926L31.6658 50.1185C30.9105 50.8114 29.8908 51.2001 28.828 51.2001ZM43.4747 31.4079C43.4747 35.1349 40.2148 38.1562 36.1935 38.1562C34.7588 38.1562 33.4211 37.7714 32.2937 37.1073C31.5384 42.5362 26.4982 46.7664 20.4437 46.7664H13.9524C7.38106 46.7664 2.00456 41.7834 2.00456 35.693V23.9404C2.00456 22.9712 2.86014 22.1782 3.90586 22.1782C12.7673 22.7014 21.6287 22.7014 30.4902 22.1782C31.5359 22.1782 32.3915 22.9712 32.3915 23.9404V25.6518C33.4981 25.0225 34.8 24.6595 36.1935 24.6595C40.2148 24.6595 43.4747 27.6808 43.4747 31.4079ZM41.1587 31.4079C41.1587 28.8663 38.9357 26.806 36.1935 26.806C34.6674 26.806 33.3023 27.4443 32.3915 28.4484V34.3673C33.3023 35.3714 34.6674 36.0097 36.1935 36.0097C38.9357 36.0097 41.1587 33.9494 41.1587 31.4079Z" fill="white"/>
<path d="M9.05379 22.2541C9.05379 22.2541 9.06948 22.2377 9.09987 22.2059C9.11507 22.19 9.13395 22.1703 9.15637 22.1469C9.17851 22.1232 9.20237 22.0949 9.23024 22.0641C9.33943 21.9389 9.49273 21.7495 9.64471 21.4933C9.79522 21.2366 9.94497 20.9123 10.0421 20.5298C10.0892 20.3385 10.1279 20.1344 10.143 19.919C10.1513 19.8115 10.1543 19.7015 10.1541 19.5899C10.151 19.4781 10.1455 19.3646 10.1301 19.2502C10.1171 19.1357 10.095 19.0207 10.0702 18.9053C10.0404 18.7907 10.0112 18.6748 9.968 18.5617C9.95859 18.533 9.94739 18.5048 9.93556 18.4768C9.92415 18.4487 9.91271 18.4206 9.90122 18.3923C9.87526 18.337 9.85193 18.2805 9.82216 18.2263C9.79538 18.171 9.76285 18.118 9.73237 18.064L9.72665 18.0539C9.72899 18.0587 9.71737 18.0361 9.73117 18.0633L9.72744 18.0573L9.71249 18.0335L9.6825 17.9858C9.66247 17.9539 9.64237 17.9219 9.62221 17.8898L9.60719 17.8662L9.59332 17.8478L9.56573 17.8111C9.54767 17.7866 9.52954 17.762 9.51136 17.7373L9.49792 17.7187L9.48187 17.6985L9.4498 17.6581C9.42849 17.6312 9.40713 17.6042 9.38569 17.5771C9.34178 17.5231 9.29351 17.4696 9.2476 17.4154C9.20014 17.3612 9.14937 17.3071 9.10027 17.2525C8.89699 17.035 8.66952 16.8139 8.42934 16.5779C8.18934 16.342 7.93748 16.0902 7.69097 15.8071L7.59908 15.7L7.50895 15.5878C7.47911 15.5499 7.44844 15.5134 7.41925 15.4741L7.33207 15.3554L7.28853 15.2958L7.27774 15.2808L7.25777 15.2503L7.24009 15.2232L7.16926 15.1148L7.13379 15.0605C7.12819 15.0523 7.12143 15.0407 7.11464 15.029L7.09456 14.9945L7.01475 14.8557L6.97519 14.7859C6.96296 14.7631 6.95244 14.7413 6.94101 14.7189L6.8745 14.5847L6.84165 14.5174L6.8121 14.4488L6.75331 14.3112C6.73288 14.2655 6.71595 14.2188 6.69899 14.172L6.64784 14.0315C6.61436 13.9375 6.5892 13.8413 6.55997 13.746C6.45293 13.3624 6.39226 12.9665 6.37861 12.5685C6.36665 12.1707 6.39939 11.7705 6.48331 11.3794C6.52489 11.1831 6.57707 10.9917 6.64388 10.7993L6.68786 10.6757L6.74494 10.53L6.77381 10.4577L6.80302 10.3912L6.86224 10.2588C6.94522 10.0858 7.03115 9.91616 7.12337 9.75523C7.21511 9.59291 7.31163 9.43861 7.40791 9.28684C7.60314 8.98639 7.80258 8.70472 7.99643 8.43577C8.09179 8.30298 8.18636 8.1713 8.28004 8.04086C8.30298 8.00859 8.32587 7.97639 8.3487 7.94428C8.3709 7.91236 8.39304 7.88053 8.41513 7.84877C8.43783 7.81619 8.46047 7.7837 8.48305 7.75129C8.504 7.72063 8.52488 7.69004 8.54572 7.65954C8.58785 7.59929 8.62786 7.53525 8.6688 7.47369C8.70838 7.41159 8.74773 7.34985 8.78684 7.28847C8.82363 7.22681 8.86149 7.16555 8.89694 7.10436C8.9306 7.04293 8.96816 6.98253 8.99989 6.92169C9.26455 6.43647 9.43945 5.96244 9.4983 5.51248C9.50834 5.45608 9.51135 5.40053 9.51593 5.34511C9.51814 5.31945 9.52034 5.29394 9.52253 5.26856C9.52279 5.23782 9.52305 5.20725 9.52331 5.17687C9.52319 5.15306 9.52308 5.12939 9.52296 5.10587C9.52143 5.07974 9.51991 5.05377 9.5184 5.02795C9.5135 4.97633 9.50936 4.9247 9.50199 4.87382C9.48794 4.77199 9.4668 4.67254 9.44013 4.57655C9.41305 4.48065 9.37935 4.38889 9.34387 4.30012C9.27189 4.12269 9.17818 3.96546 9.0799 3.82559C8.9797 3.68709 8.87061 3.56866 8.76057 3.47111C8.53942 3.27641 8.31753 3.16434 8.15812 3.10486C8.1184 3.08893 8.08226 3.07744 8.05083 3.06721C8.0195 3.0563 7.99261 3.04853 7.97071 3.04313C7.92674 3.03142 7.90405 3.02538 7.90405 3.02538C7.90405 3.02538 7.92767 3.02373 7.97342 3.02053C7.99651 3.0185 8.02518 3.01709 8.05937 3.01721C8.09375 3.01627 8.13367 3.01647 8.17877 3.01984C8.26946 3.02404 8.38202 3.03727 8.51217 3.06868C8.64267 3.09899 8.79046 3.14858 8.94725 3.22434C9.26093 3.37423 9.60734 3.63677 9.89362 4.02394C10.0379 4.2167 10.1626 4.44164 10.2609 4.6949C10.2857 4.75819 10.3078 4.82359 10.3277 4.89071C10.3368 4.92455 10.3461 4.9586 10.3554 4.99285C10.3636 5.03005 10.3718 5.06747 10.38 5.10511C10.3862 5.1364 10.3924 5.16788 10.3987 5.19953L10.4009 5.21115C10.4007 5.20566 10.4026 5.22506 10.4027 5.22556L10.4035 5.23215L10.407 5.25857L10.4138 5.31176C10.4229 5.38295 10.4332 5.45539 10.436 5.52838C10.4565 5.82116 10.4369 6.12749 10.3826 6.43506C10.3283 6.74285 10.2396 7.05193 10.1254 7.35661C10.0114 7.66223 9.87328 7.96129 9.7169 8.25869C9.69702 8.29629 9.67709 8.33399 9.65711 8.37179C9.63786 8.40738 9.61857 8.44306 9.59923 8.47883C9.57895 8.51526 9.55863 8.55178 9.53825 8.58838C9.51774 8.62437 9.49717 8.66045 9.47655 8.69662C9.39407 8.84136 9.31049 8.98423 9.22553 9.12658C9.05742 9.41095 8.88818 9.69165 8.73213 9.97225C8.65499 10.1121 8.57875 10.2522 8.51073 10.3923C8.43924 10.532 8.37728 10.6719 8.31785 10.812L8.27667 10.9171L8.25561 10.9695L8.23857 11.0177L8.20405 11.1135L8.16564 11.2346L8.14629 11.2962L8.14144 11.3116C8.14989 11.2856 8.14285 11.3082 8.14431 11.3041L8.14266 11.3106L8.13607 11.3368L8.10899 11.4416L8.09494 11.4939C8.09069 11.5114 8.08768 11.5293 8.08395 11.547L8.06225 11.6533C8.0092 11.9379 7.98526 12.2299 7.99571 12.522C8.00362 12.8141 8.0472 13.1057 8.11822 13.3895C8.1388 13.4597 8.15508 13.5311 8.17815 13.6005L8.21212 13.7047C8.22319 13.7395 8.23408 13.7743 8.24823 13.808L8.28775 13.9101L8.30731 13.9612L8.32984 14.011L8.3746 14.1106L8.39653 14.1601L8.41904 14.2041L8.46317 14.2924L8.47402 14.3146C8.47744 14.3218 8.48093 14.3291 8.48714 14.3392L8.51993 14.3949L8.5854 14.5062L8.60174 14.534L8.60583 14.5409C8.61676 14.5582 8.59555 14.5252 8.59911 14.5306L8.60677 14.5422L8.63696 14.5889L8.69697 14.6823C8.71714 14.7134 8.74041 14.7443 8.76188 14.7753L8.82759 14.8683L8.89814 14.9609C9.08521 15.209 9.29761 15.4556 9.51391 15.7093C9.7303 15.9628 9.95237 16.2231 10.1579 16.5002C10.2088 16.5708 10.2599 16.6394 10.3093 16.7104C10.3572 16.7832 10.406 16.8537 10.4518 16.9271C10.4743 16.9643 10.4968 17.0013 10.5191 17.0383L10.5525 17.0936L10.5691 17.1211L10.5857 17.1515C10.6076 17.1922 10.6293 17.2327 10.651 17.2731L10.6829 17.3336L10.6987 17.3638L10.7107 17.3899C10.7441 17.4646 10.7773 17.5387 10.8103 17.6123C10.8424 17.6926 10.8735 17.7724 10.8986 17.8529C10.9266 17.9326 10.9469 18.0134 10.9691 18.0927C10.9792 18.1326 10.9875 18.1726 10.9963 18.2123C11.0053 18.252 11.0134 18.2915 11.0196 18.3312C11.0495 18.4889 11.0633 18.645 11.0721 18.7972C11.0764 18.9496 11.0776 19.0983 11.0634 19.2428C11.0189 19.8214 10.8423 20.3243 10.6252 20.7305C10.406 21.1375 10.1435 21.4485 9.90291 21.6737C9.7817 21.786 9.66844 21.8796 9.56334 21.9532C9.53744 21.9717 9.51251 21.9896 9.48857 22.0067C9.46377 22.0228 9.43998 22.0383 9.41724 22.053C9.39448 22.0675 9.37275 22.0813 9.35209 22.0944C9.33071 22.1068 9.31043 22.1186 9.29128 22.1297C9.21558 22.1751 9.1555 22.2036 9.11499 22.2237C9.07462 22.2437 9.05379 22.2541 9.05379 22.2541Z" fill="white"/>
<path d="M17.4285 22.8043C17.4285 22.8043 17.4141 22.7778 17.386 22.7265C17.3582 22.6752 17.3156 22.5994 17.2631 22.4995C17.2099 22.3998 17.1448 22.2766 17.0705 22.1308C16.9956 21.9851 16.9114 21.8168 16.821 21.6262C16.7286 21.4363 16.6335 21.2228 16.5332 20.988C16.4317 20.7535 16.3341 20.4949 16.2369 20.2141C16.1396 19.9333 16.0524 19.6282 15.9762 19.3001C15.9669 19.259 15.9574 19.2176 15.948 19.176C15.9398 19.1339 15.9316 19.0914 15.9233 19.0487C15.9156 19.008 15.9078 18.967 15.8999 18.9258C15.8931 18.8814 15.8863 18.8367 15.8794 18.7918C15.8728 18.7467 15.8661 18.7013 15.8593 18.6557C15.854 18.6109 15.8487 18.5657 15.8433 18.5204C15.8314 18.4296 15.8244 18.3372 15.8169 18.2437C15.7887 17.8695 15.793 17.4739 15.8425 17.0626C15.8559 16.9598 15.8676 16.8557 15.8892 16.7516C15.8992 16.6995 15.9078 16.6469 15.9194 16.5944C15.9317 16.5419 15.944 16.4893 15.9564 16.4364L15.9753 16.3569L15.998 16.2776C16.0133 16.2246 16.0287 16.1713 16.0441 16.1179C16.0607 16.0647 16.08 16.0118 16.098 15.9584C16.1168 15.9051 16.1339 15.8511 16.1564 15.7983C16.1993 15.6921 16.2411 15.5844 16.2939 15.4793C16.3202 15.4268 16.3432 15.3727 16.3727 15.321C16.4014 15.2689 16.4303 15.2167 16.4592 15.1642L16.4811 15.1249L16.4866 15.115L16.5016 15.0919L16.5121 15.075L16.5544 15.0073C16.583 14.9618 16.6116 14.9162 16.6403 14.8705C16.6777 14.818 16.7152 14.7653 16.7529 14.7125L16.8101 14.6332C16.8293 14.6064 16.8485 14.5845 16.8677 14.5598C16.9064 14.5118 16.9451 14.4636 16.984 14.4154C17.0225 14.3665 17.0656 14.3221 17.1065 14.2751C17.1483 14.2291 17.189 14.1813 17.2332 14.1373C17.2773 14.093 17.3215 14.0487 17.3658 14.0042C17.4096 13.959 17.456 13.9168 17.5025 13.8744C17.549 13.832 17.5956 13.7894 17.6424 13.7468C17.6906 13.7062 17.739 13.6656 17.7874 13.6248C17.8359 13.5839 17.8849 13.5436 17.9355 13.5056C18.335 13.1924 18.7677 12.915 19.217 12.6689C19.4416 12.5443 19.671 12.4306 19.902 12.318C19.9601 12.291 20.0182 12.2638 20.0763 12.2367L20.168 12.1944L20.2521 12.1568L20.4208 12.0814L20.5984 12.0044C21.5333 11.6028 22.4651 11.262 23.3133 10.853C23.5263 10.752 23.7319 10.6455 23.9321 10.5344L24.0807 10.4499L24.0993 10.4394C24.097 10.4408 24.1175 10.4287 24.0965 10.4413L24.1065 10.4353L24.1462 10.4111L24.2258 10.3629C24.3404 10.2956 24.4159 10.242 24.5057 10.1845C24.8665 9.93777 25.206 9.66317 25.4896 9.36244C26.0653 8.76311 26.4201 8.06449 26.4635 7.35501C26.4743 7.1769 26.4673 6.99728 26.4441 6.81854C26.4204 6.63989 26.3807 6.46211 26.3275 6.28733C26.2738 6.11266 26.2059 5.9413 26.1276 5.77443C26.0489 5.60764 25.958 5.44628 25.8602 5.28976C25.6637 4.97693 25.4294 4.69045 25.178 4.43167C25.0523 4.30206 24.9215 4.17986 24.7872 4.0654C24.7534 4.03696 24.7203 4.00797 24.6858 3.981C24.6537 3.95529 24.6217 3.92971 24.59 3.90426C24.5136 3.84828 24.4386 3.79206 24.3646 3.73619C24.0925 3.53775 23.7973 3.35636 23.5134 3.19427C23.2292 3.02994 22.9438 2.89379 22.6748 2.76357C22.1326 2.51024 21.6389 2.31264 21.2301 2.15159C20.8183 1.99265 20.4947 1.86777 20.2741 1.78262C20.053 1.69598 19.9351 1.64978 19.9351 1.64978C19.9351 1.64978 19.9668 1.65395 20.0282 1.66202C20.0896 1.67033 20.181 1.68143 20.2994 1.69871C20.418 1.71591 20.5644 1.73604 20.7358 1.76395C20.9077 1.79005 21.1045 1.82356 21.325 1.86333C21.766 1.94337 22.3005 2.05384 22.9084 2.22595C22.9846 2.24676 23.0613 2.27093 23.1393 2.29477C23.2173 2.31886 23.2967 2.3431 23.3762 2.37105C23.456 2.39834 23.5371 2.42603 23.6192 2.45409C23.7008 2.48456 23.7834 2.51545 23.8671 2.54673C24.2018 2.67705 24.5423 2.83054 24.9037 3.02492C24.9855 3.07051 25.068 3.1168 25.1508 3.16436L25.1663 3.17324L25.1741 3.17768L25.191 3.18856L25.2238 3.20899L25.2897 3.25008C25.3342 3.27715 25.3772 3.30631 25.4209 3.33509C25.5954 3.45094 25.7675 3.57673 25.9359 3.71291C26.2724 3.98567 26.5886 4.30432 26.8754 4.66545C27.0189 4.84604 27.1518 5.03933 27.2733 5.24392C27.3951 5.44837 27.5038 5.66512 27.5959 5.89321C27.6884 6.12111 27.7635 6.36073 27.8158 6.60988C27.8684 6.85883 27.8995 7.11733 27.9007 7.3806C27.8995 7.4472 27.8999 7.51071 27.8966 7.58045L27.8893 7.68818C27.8868 7.72366 27.884 7.76325 27.881 7.78733L27.872 7.87046L27.8675 7.91209L27.8608 7.95209L27.8564 7.97679C27.8443 8.0427 27.8321 8.10874 27.8199 8.17489C27.8094 8.24163 27.789 8.30574 27.7725 8.37118C27.7542 8.43599 27.7395 8.5025 27.7173 8.56621C27.6723 8.69339 27.6315 8.82362 27.5737 8.94625C27.4693 9.19752 27.3329 9.43342 27.1868 9.66311C27.1093 9.77438 27.0339 9.88865 26.9481 9.99392C26.9058 10.0471 26.8654 10.1023 26.821 10.1537L26.6874 10.3078C26.6434 10.3601 26.5958 10.4083 26.5486 10.4574C26.501 10.5059 26.4549 10.5563 26.4057 10.6032C26.3067 10.6962 26.2094 10.7922 26.1052 10.8794C25.9012 11.0611 25.6843 11.2231 25.4594 11.3825C25.0076 11.6956 24.5363 11.9543 24.0579 12.1842C23.1009 12.6427 22.132 12.978 21.2413 13.3324L21.0771 13.3974L20.9064 13.4673L20.821 13.5023L20.7447 13.5347L20.5836 13.603C20.3716 13.696 20.1614 13.7896 19.9605 13.8907C19.5546 14.0883 19.1762 14.3064 18.8306 14.5432C18.4831 14.7788 18.1801 15.0418 17.9161 15.3205C17.9 15.3377 17.8812 15.3556 17.8675 15.372L17.8248 15.4216C17.7959 15.4545 17.7671 15.4874 17.7383 15.5201C17.706 15.5629 17.6738 15.6055 17.6417 15.6481L17.5934 15.7123L17.5814 15.7283C17.5837 15.7245 17.5676 15.7483 17.5851 15.7217L17.5803 15.7288L17.5612 15.7575C17.5354 15.7956 17.5098 15.8337 17.4842 15.8716C17.4576 15.909 17.4368 15.9497 17.4127 15.9884C17.3903 16.0281 17.3635 16.0655 17.3432 16.1061C17.3216 16.1462 17.3001 16.1862 17.2787 16.226C17.1091 16.547 16.9953 16.888 16.9075 17.2268C16.8192 17.5663 16.7748 17.9079 16.7503 18.2395C16.7446 18.3225 16.7383 18.4048 16.737 18.4867C16.7356 18.5276 16.7343 18.5683 16.733 18.6088C16.7329 18.6484 16.7329 18.6878 16.7328 18.727C16.7328 18.7663 16.7328 18.8054 16.7328 18.8442C16.7344 18.886 16.736 18.9276 16.7377 18.9689C16.7385 18.9896 16.7393 19.0102 16.7401 19.0307L16.7411 19.0615L16.7415 19.0768C16.7422 19.0844 16.7408 19.0752 16.7412 19.0788L16.7416 19.0862C16.7438 19.1253 16.746 19.1642 16.7483 19.2029C16.7656 19.5126 16.8035 19.8075 16.8434 20.0861C16.9264 20.6432 17.0367 21.1309 17.1285 21.5336C17.2245 21.9373 17.2999 22.2545 17.3513 22.4708C17.4017 22.6883 17.4285 22.8043 17.4285 22.8043Z" fill="white"/>
<path d="M26.5138 22.427C26.5138 22.427 26.3998 22.4053 26.1862 22.3648C26.0797 22.3439 25.9495 22.3084 25.7944 22.2693C25.7168 22.2496 25.6366 22.2229 25.549 22.1967C25.4621 22.1695 25.3687 22.1416 25.2734 22.1052C24.8864 21.9706 24.4251 21.7737 23.9297 21.4857C23.4348 21.1981 22.9071 20.8182 22.3958 20.3324C22.3326 20.2712 22.2704 20.2078 22.2076 20.1435C22.1763 20.1113 22.1447 20.0789 22.113 20.0464C22.0828 20.0127 22.0525 19.9788 22.0221 19.9447C21.9615 19.8762 21.8994 19.8075 21.8385 19.7368C21.7801 19.6643 21.7211 19.5911 21.6616 19.5173C21.6006 19.4441 21.5458 19.3661 21.4896 19.2878C21.4616 19.2486 21.4334 19.2092 21.4051 19.1697L21.3839 19.1399L21.3733 19.125C21.3728 19.1249 21.3577 19.099 21.362 19.1066L21.3573 19.0994L21.3202 19.0422C21.2706 18.9656 21.2207 18.8884 21.1704 18.8107C21.1198 18.722 21.0689 18.6327 21.0175 18.5427C20.9638 18.4513 20.9216 18.3623 20.8754 18.2713C20.8528 18.2258 20.8301 18.1801 20.8073 18.1343C20.7839 18.0887 20.7654 18.0412 20.7441 17.9944C20.7037 17.9002 20.6597 17.8061 20.6217 17.7096C20.5852 17.6124 20.5486 17.5147 20.5117 17.4164C20.3735 17.0204 20.265 16.605 20.1909 16.176C20.115 15.7472 20.0821 15.3039 20.0856 14.8546C20.0908 14.4052 20.1348 13.9492 20.2239 13.4951L20.2606 13.3251L20.3001 13.1491L20.3404 12.9939L20.3873 12.8254C20.4482 12.6106 20.512 12.4052 20.5708 12.2079C20.6873 11.8132 20.7796 11.4488 20.7976 11.1172L20.7994 11.0557L20.8006 11.025L20.8012 11.0097C20.8016 11.022 20.801 10.9713 20.8021 11.0353L20.8017 11.0253L20.7956 10.8653C20.7952 10.7416 20.7779 10.6938 20.7706 10.6218L20.7675 10.5961C20.7666 10.5876 20.7661 10.5794 20.7631 10.5687L20.7488 10.5081C20.7394 10.4678 20.7307 10.4272 20.7223 10.3866C20.7128 10.3461 20.6974 10.3061 20.6856 10.2658C20.6722 10.2256 20.6628 10.1848 20.6468 10.1449C20.5272 9.8244 20.3477 9.50955 20.124 9.21257C20.0142 9.06303 19.8896 8.9197 19.7604 8.77972C19.6966 8.70915 19.6263 8.6424 19.5601 8.57342C19.4907 8.50642 19.4188 8.44127 19.3488 8.37505C19.275 8.31136 19.2015 8.24786 19.1282 8.18458C19.0518 8.12386 18.9777 8.06111 18.9001 8.00207C18.861 7.97275 18.822 7.94347 18.7832 7.91425L18.725 7.87014L18.7178 7.86462C18.7139 7.86175 18.7265 7.8701 18.7173 7.86382L18.7011 7.85229L18.6686 7.82925C18.6254 7.79855 18.5823 7.7679 18.5392 7.73732L18.4751 7.69191L18.4148 7.65089C18.334 7.59606 18.2562 7.54207 18.1704 7.48626C18.0865 7.43076 18.0033 7.37527 17.9178 7.32115C17.8331 7.2667 17.7486 7.21251 17.6626 7.15908C17.5769 7.10509 17.4916 7.05137 17.4067 6.99795C17.0648 6.78463 16.7231 6.5726 16.392 6.35497C15.7288 5.92091 15.1117 5.45788 14.6134 4.94936C14.3617 4.68871 14.1499 4.42668 13.9706 4.16079C13.7939 3.89438 13.647 3.63079 13.5367 3.37222C13.4262 3.11399 13.3455 2.86438 13.2958 2.62947C13.2468 2.39432 13.2237 2.17545 13.2237 1.97851C13.2205 1.58388 13.2999 1.28382 13.3682 1.08985C13.4031 0.992482 13.4347 0.920139 13.4583 0.872318C13.481 0.824488 13.4928 0.799805 13.4928 0.799805C13.4928 0.799805 13.4891 0.826542 13.4819 0.878344C13.4736 0.92962 13.4673 1.00685 13.4607 1.10583C13.4593 1.15567 13.4552 1.21059 13.4577 1.27142C13.4588 1.30179 13.4575 1.33317 13.4596 1.36609C13.4616 1.39884 13.4637 1.43294 13.4659 1.46837C13.4787 1.60961 13.5022 1.76992 13.5468 1.94432C13.5925 2.1185 13.6559 2.30705 13.7462 2.50339C13.8392 2.69887 13.9507 2.90446 14.0945 3.11029C14.1661 3.21327 14.2443 3.31677 14.3273 3.42099C14.4122 3.5243 14.5032 3.62764 14.6008 3.72992C14.7 3.83119 14.8028 3.93342 14.9132 4.0331C15.0229 4.13208 15.1429 4.23116 15.2632 4.32254C15.5107 4.51201 15.7891 4.69687 16.0878 4.87354C16.3867 5.05129 16.7066 5.22514 17.0444 5.40014C17.3891 5.57573 17.7432 5.75611 18.1051 5.94048C18.2888 6.03427 18.4757 6.13152 18.6641 6.23423C18.8532 6.33627 19.0413 6.44111 19.2395 6.55972L19.3132 6.60328L19.3814 6.64513C19.4266 6.67294 19.4719 6.70082 19.5172 6.72874L19.5513 6.74969L19.5683 6.76018C19.5646 6.75754 19.5828 6.76958 19.5843 6.77059L19.5933 6.77653L19.6656 6.82426C19.7136 6.85633 19.7618 6.88846 19.8101 6.92065C19.9062 6.98566 19.9996 7.05542 20.095 7.12326C20.1886 7.1936 20.2812 7.26635 20.374 7.33914C20.4641 7.41576 20.5554 7.49144 20.6449 7.5702C20.7321 7.65179 20.8221 7.73065 20.9075 7.81585C21.0777 7.98631 21.2439 8.16421 21.3977 8.35673C21.7055 8.73997 21.9766 9.17207 22.1634 9.65418C22.1878 9.71378 22.2059 9.77661 22.2271 9.83787C22.2467 9.89982 22.2692 9.96065 22.2858 10.0238L22.3313 10.2149L22.3532 10.3107C22.3571 10.3259 22.3596 10.3443 22.3622 10.3622L22.37 10.4159C22.3802 10.4875 22.3896 10.5594 22.3982 10.6312C22.4094 10.7114 22.4078 10.7531 22.411 10.809L22.418 10.969L22.4184 10.979C22.4196 11.0496 22.4186 11.0057 22.4187 11.0246L22.4181 11.0493L22.4166 11.0986L22.4131 11.1972C22.3804 11.7201 22.2481 12.1905 22.1152 12.6129C22.05 12.8155 21.9849 13.0176 21.92 13.2191L21.8773 13.3568L21.8334 13.5085C21.8102 13.5991 21.7871 13.6895 21.764 13.7797C21.6778 14.1504 21.6225 14.5258 21.5984 14.8997C21.5731 15.2736 21.5769 15.6464 21.6132 16.0115C21.6483 16.3767 21.7107 16.7343 21.7948 17.0808C21.8182 17.1669 21.8414 17.2526 21.8645 17.3377C21.888 17.4229 21.9174 17.5059 21.9432 17.5896C21.9571 17.6311 21.9682 17.6736 21.9843 17.7141C21.9996 17.7549 22.0149 17.7956 22.0301 17.8362C22.0608 17.9168 22.0887 18.0009 22.1222 18.0745C22.1544 18.1508 22.1865 18.2266 22.2183 18.3019C22.2586 18.3845 22.2986 18.4665 22.3383 18.5478L22.3679 18.6087L22.3716 18.6163C22.3787 18.6288 22.3661 18.6079 22.3688 18.6125L22.3763 18.6263L22.3914 18.6538C22.4115 18.6905 22.4314 18.7271 22.4513 18.7636C22.4917 18.8362 22.5281 18.9106 22.5724 18.98C22.6148 19.0507 22.6569 19.1208 22.6986 19.1902C22.7438 19.258 22.7886 19.3251 22.833 19.3917C22.8554 19.425 22.8778 19.4581 22.9 19.4911C22.9238 19.5231 22.9475 19.5549 22.971 19.5866C23.018 19.6504 23.0645 19.7136 23.1106 19.7762C23.4939 20.2675 23.9064 20.6845 24.3053 21.0262C24.7042 21.3688 25.0904 21.6344 25.4211 21.8387C25.5024 21.8925 25.5832 21.9371 25.6588 21.9805C25.7345 22.0234 25.8045 22.0676 25.8718 22.1026C25.9394 22.1382 26.0019 22.1711 26.0592 22.2013C26.1168 22.2318 26.1684 22.2611 26.2175 22.2832C26.4108 22.377 26.5138 22.427 26.5138 22.427Z" fill="white"/>
</svg>
