<svg width="32" height="32" viewBox="0 0 32 32" fill="none" xmlns="http://www.w3.org/2000/svg">
<path d="M16 25C18.1217 25 20.1566 24.1571 21.6569 22.6569C23.1571 21.1566 24 19.1217 24 17V15M16 25C13.8783 25 11.8434 24.1571 10.3431 22.6569C8.84285 21.1566 8 19.1217 8 17V15M16 25V30M11 30H21M16 21C14.9391 21 13.9217 20.5786 13.1716 19.8284C12.4214 19.0783 12 18.0609 12 17V6C12 4.93913 12.4214 3.92172 13.1716 3.17157C13.9217 2.42143 14.9391 2 16 2C17.0609 2 18.0783 2.42143 18.8284 3.17157C19.5786 3.92172 20 4.93913 20 6V17C20 18.0609 19.5786 19.0783 18.8284 19.8284C18.0783 20.5786 17.0609 21 16 21Z" stroke="white" stroke-width="1.5" stroke-linecap="round" stroke-linejoin="round"/>
<path d="M3 6L30 22.5" stroke="#FF0000"/>
</svg>
