<svg width="32" height="32" viewBox="0 0 32 32" fill="none" xmlns="http://www.w3.org/2000/svg">
<g clip-path="url(#clip0_5_65)">
<path d="M10.0277 16C10.0277 16.1768 9.96025 16.3464 9.84014 16.4714C9.72003 16.5964 9.55713 16.6667 9.38727 16.6667C9.21742 16.6667 9.05452 16.5964 8.93441 16.4714C8.8143 16.3464 8.74683 16.1768 8.74683 16C8.74683 15.8232 8.8143 15.6536 8.93441 15.5286C9.05452 15.4036 9.21742 15.3333 9.38727 15.3333C9.55713 15.3333 9.72003 15.4036 9.84014 15.5286C9.96025 15.6536 10.0277 15.8232 10.0277 16ZM10.0277 16H9.38727M16.4322 16C16.4322 16.1768 16.3647 16.3464 16.2446 16.4714C16.1245 16.5964 15.9616 16.6667 15.7917 16.6667C15.6219 16.6667 15.459 16.5964 15.3389 16.4714C15.2188 16.3464 15.1513 16.1768 15.1513 16C15.1513 15.8232 15.2188 15.6536 15.3389 15.5286C15.459 15.4036 15.6219 15.3333 15.7917 15.3333C15.9616 15.3333 16.1245 15.4036 16.2446 15.5286C16.3647 15.6536 16.4322 15.8232 16.4322 16ZM16.4322 16H15.7917M22.8367 16C22.8367 16.1768 22.7692 16.3464 22.6491 16.4714C22.529 16.5964 22.3661 16.6667 22.1962 16.6667C22.0264 16.6667 21.8635 16.5964 21.7433 16.4714C21.6232 16.3464 21.5558 16.1768 21.5558 16C21.5558 15.8232 21.6232 15.6536 21.7433 15.5286C21.8635 15.4036 22.0264 15.3333 22.1962 15.3333C22.3661 15.3333 22.529 15.4036 22.6491 15.5286C22.7692 15.6536 22.8367 15.8232 22.8367 16ZM22.8367 16H22.1962M31.1625 16C31.1625 18.1012 30.7649 20.1817 29.9924 22.1229C29.22 24.0641 28.0878 25.828 26.6605 27.3137C25.2332 28.7994 23.5387 29.978 21.6739 30.7821C19.809 31.5861 17.8103 32 15.7917 32C13.7732 32 11.7745 31.5861 9.90962 30.7821C8.04476 29.978 6.3503 28.7994 4.923 27.3137C3.4957 25.828 2.3635 24.0641 1.59105 22.1229C0.818596 20.1817 0.42102 18.1012 0.421021 16C0.421021 11.7565 2.04043 7.68687 4.923 4.68629C7.80557 1.68571 11.7152 0 15.7917 0C19.8683 0 23.7779 1.68571 26.6605 4.68629C29.543 7.68687 31.1625 11.7565 31.1625 16Z" stroke="white" stroke-width="1.5" stroke-linecap="round" stroke-linejoin="round"/>
</g>
<defs>
<clipPath id="clip0_5_65">
<rect width="30.7414" height="32" fill="white" transform="translate(0.421021)"/>
</clipPath>
</defs>
</svg>
