<svg width="31" height="34" viewBox="0 0 31 34" fill="none" xmlns="http://www.w3.org/2000/svg">
<path d="M7.92315 15.1713C7.54069 14.4549 6.94056 13.8911 6.21694 13.5682C5.49332 13.2453 4.68718 13.1817 3.92507 13.3873C3.16296 13.593 2.48802 14.0562 2.0062 14.7043C1.52437 15.3525 1.26294 16.1488 1.26294 16.9683C1.26294 17.7879 1.52437 18.5842 2.0062 19.2323C2.48802 19.8805 3.16296 20.3437 3.92507 20.5493C4.68718 20.755 5.49332 20.6914 6.21694 20.3685C6.94056 20.0456 7.54069 19.4817 7.92315 18.7654M7.92315 15.1713C8.20745 15.704 8.37014 16.3156 8.37014 16.9683C8.37014 17.6211 8.20745 18.2343 7.92315 18.7654M7.92315 15.1713L23.0325 6.43425M7.92315 18.7654L23.0325 27.5024M23.0325 6.43425C23.2541 6.86853 23.5565 7.25249 23.9223 7.56367C24.288 7.87484 24.7097 8.107 25.1627 8.24656C25.6156 8.38612 26.0907 8.43029 26.5603 8.37648C27.0298 8.32267 27.4843 8.17196 27.8972 7.93316C28.3102 7.69437 28.6732 7.37228 28.9652 6.98572C29.2571 6.59917 29.4721 6.15591 29.5976 5.68186C29.723 5.20781 29.7564 4.71248 29.6958 4.22483C29.6352 3.73718 29.4819 3.267 29.2447 2.84177C28.7772 2.00382 28.0126 1.39021 27.1152 1.13286C26.2178 0.875516 25.2592 0.994968 24.4454 1.46554C23.6317 1.93612 23.0278 2.72025 22.7636 3.64937C22.4994 4.5785 22.596 5.57844 23.0325 6.43425ZM23.0325 27.5024C22.8058 27.9272 22.6617 28.3944 22.6084 28.8772C22.5552 29.3599 22.5937 29.8489 22.722 30.3162C22.8503 30.7834 23.0657 31.2198 23.356 31.6004C23.6462 31.981 24.0057 32.2984 24.4138 32.5344C24.8219 32.7704 25.2707 32.9204 25.7345 32.9758C26.1983 33.0313 26.668 32.9911 27.1169 32.8576C27.5658 32.7241 27.985 32.4998 28.3506 32.1977C28.7162 31.8955 29.0211 31.5214 29.2478 31.0965C29.7057 30.2386 29.8174 29.2265 29.5584 28.2828C29.2993 27.3391 28.6908 26.5412 27.8666 26.0646C27.0424 25.588 26.07 25.4717 25.1635 25.7414C24.2569 26.011 23.4904 26.6445 23.0325 27.5024Z" stroke="white" stroke-width="1.5" stroke-linecap="round" stroke-linejoin="round"/>
</svg>
