<svg width="27" height="26" viewBox="0 0 27 26" fill="none" xmlns="http://www.w3.org/2000/svg">
<path d="M2.76326 1V16C2.76326 16.7956 3.0669 17.5587 3.60738 18.1213C4.14786 18.6839 4.88091 19 5.64527 19H8.52728M2.76326 1H0.841919M2.76326 1H23.898M8.52728 19H18.134M8.52728 19L7.24639 23M23.898 1H25.8193M23.898 1V16C23.898 16.7956 23.5944 17.5587 23.0539 18.1213C22.5134 18.6839 21.7803 19 21.016 19H18.134M18.134 19L19.4149 23M7.24639 23H19.4149M7.24639 23L6.60594 25M19.4149 23L20.0553 25M7.56661 13L11.4093 9L14.1606 11.864C15.4533 9.93239 17.1376 8.31977 19.0946 7.14" stroke="white" stroke-width="1.5" stroke-linecap="round" stroke-linejoin="round"/>
</svg>
