<svg width="72" height="64" viewBox="0 0 72 64" fill="none" xmlns="http://www.w3.org/2000/svg">
<path d="M54.1618 49.9333C52.0946 47.4663 49.42 45.4657 46.3489 44.089C43.2778 42.7123 39.894 41.9972 36.4641 42C33.0341 41.9972 29.6503 42.7123 26.5792 44.089C23.5081 45.4657 20.8336 47.4663 18.7664 49.9333M54.1618 49.9333C58.1957 46.6992 61.0406 42.4361 62.3248 37.7096C63.609 32.983 63.2688 28.0162 61.3493 23.4679C59.4299 18.9197 56.0218 15.0047 51.5772 12.2424C47.1326 9.48005 41.8614 8.00079 36.4626 8.00079C31.0638 8.00079 25.7926 9.48005 21.348 12.2424C16.9034 15.0047 13.4953 18.9197 11.5759 23.4679C9.65643 28.0162 9.31624 32.983 10.6004 37.7096C11.8846 42.4361 14.7325 46.6992 18.7664 49.9333M54.1618 49.9333C49.2922 53.8485 42.9894 56.0084 36.4641 56C29.9377 56.009 23.6368 53.8491 18.7664 49.9333M45.3396 26C45.3396 28.1217 44.4045 30.1566 42.74 31.6569C41.0755 33.1572 38.818 34 36.4641 34C34.1102 34 31.8526 33.1572 30.1882 31.6569C28.5237 30.1566 27.5886 28.1217 27.5886 26C27.5886 23.8783 28.5237 21.8434 30.1882 20.3432C31.8526 18.8429 34.1102 18 36.4641 18C38.818 18 41.0755 18.8429 42.74 20.3432C44.4045 21.8434 45.3396 23.8783 45.3396 26Z" stroke="white" stroke-width="1.5" stroke-linecap="round" stroke-linejoin="round"/>
</svg>
