<svg width="42" height="37" viewBox="0 0 42 37" fill="none" xmlns="http://www.w3.org/2000/svg">
<path d="M27.8781 16.1875L35.951 8.91083C36.1304 8.74933 36.3589 8.63938 36.6076 8.59485C36.8563 8.55031 37.114 8.57321 37.3483 8.66064C37.5825 8.74807 37.7828 8.89611 37.9238 9.08607C38.0647 9.27603 38.1401 9.49938 38.1403 9.72792V27.2721C38.1401 27.5006 38.0647 27.724 37.9238 27.9139C37.7828 28.1039 37.5825 28.2519 37.3483 28.3394C37.114 28.4268 36.8563 28.4497 36.6076 28.4052C36.3589 28.3606 36.1304 28.2507 35.951 28.0892L27.8781 20.8125M8.63631 28.9062H24.0297C25.0504 28.9062 26.0292 28.5408 26.7509 27.8903C27.4726 27.2398 27.8781 26.3575 27.8781 25.4375V11.5625C27.8781 10.6425 27.4726 9.76024 26.7509 9.10972C26.0292 8.45921 25.0504 8.09375 24.0297 8.09375H8.63631C7.61567 8.09375 6.63682 8.45921 5.91512 9.10972C5.19341 9.76024 4.78796 10.6425 4.78796 11.5625V25.4375C4.78796 26.3575 5.19341 27.2398 5.91512 27.8903C6.63682 28.5408 7.61567 28.9062 8.63631 28.9062Z" stroke="white" stroke-width="1.5" stroke-linecap="round"/>
</svg>
