<svg width="31" height="32" viewBox="0 0 31 32" fill="none" xmlns="http://www.w3.org/2000/svg">
<path d="M24.483 7.51464C25.5535 8.62894 26.4026 9.95182 26.982 11.4077C27.5613 12.8637 27.8595 14.4241 27.8595 16C27.8595 17.5758 27.5613 19.1363 26.982 20.5922C26.4026 22.0481 25.5535 23.371 24.483 24.4853M21.0873 11.0506C22.3482 12.3634 23.0566 14.1437 23.0566 16C23.0566 17.8563 22.3482 19.6366 21.0873 20.9493M8.64603 11L14.6918 4.70664C14.8262 4.56696 14.9973 4.47186 15.1835 4.43335C15.3698 4.39484 15.5628 4.41464 15.7382 4.49026C15.9137 4.56587 16.0636 4.69391 16.1692 4.8582C16.2748 5.02248 16.3312 5.21565 16.3314 5.41331V26.5866C16.3312 26.7843 16.2748 26.9775 16.1692 27.1417C16.0636 27.306 15.9137 27.4341 15.7382 27.5097C15.5628 27.5853 15.3698 27.6051 15.1835 27.5666C14.9973 27.5281 14.8262 27.433 14.6918 27.2933L8.64603 21H5.77683C4.64964 21 3.59419 20.324 3.29446 19.1946C3.01973 18.1539 2.881 17.0793 2.88201 16C2.88201 14.8933 3.02547 13.8226 3.29446 12.8053C3.59419 11.6746 4.64964 11 5.77683 11H8.64603Z" stroke="white" stroke-width="1.5" stroke-linecap="round" stroke-linejoin="round"/>
</svg>
